<?xml version="1.0" encoding="UTF-8" standalone="no"?>
<svg width="213px" height="51px" viewBox="0 0 213 51" version="1.1" xmlns="http://www.w3.org/2000/svg" xmlns:xlink="http://www.w3.org/1999/xlink">
    <!-- Generator: sketchtool 3.7 (28169) - http://www.bohemiancoding.com/sketch -->
    <title>B684140C-E187-43D5-807B-6AB8F0949904</title>
    <desc>Created with sketchtool.</desc>
    <defs></defs>
    <g id="Page-1" stroke="none" stroke-width="1" fill="none" fill-rule="evenodd">
        <g id="Smack-Login" transform="translate(-384.000000, -235.000000)" fill="#FFFFFF">
            <g id="Smack-Logo" transform="translate(384.000000, 235.000000)">
                <path d="M27.175957,31.6608 C26.9079019,31.9713133 26.1438998,32.2014903 25.7300841,32.3883398 C25.7643807,32.3684814 25.7521964,32.3729947 25.6384761,32.4303133 C23.6921434,33.4977027 21.766118,34.5835965 19.7254697,35.4632336 C19.1108383,33.3871274 18.6171477,31.2717558 17.9596456,29.2096407 C17.7322049,28.496092 17.4772367,27.7893133 17.1983511,27.0947204 C17.106743,26.8568708 17.0092684,26.6217292 16.9059273,26.3892956 C16.5534845,25.9880655 16.6622409,25.7565345 17.2321964,25.6942513 C17.6044951,25.3471805 18.3784252,25.1454372 18.8287939,24.9409858 C21.1505841,23.886685 23.5030608,22.9781628 25.9683553,22.3120035 C26.3045523,24.1046761 26.4828044,25.9208177 26.7874125,27.7184549 C26.9358807,28.5944814 27.1028511,29.4668973 27.2792981,30.337508 C27.4394994,31.1264283 27.592029,31.178331 27.175957,31.6608 M42.4569019,25.9497027 C39.7858278,26.7097381 37.1422811,27.6209681 34.5375439,28.5791363 C34.093493,26.0557646 33.943671,23.5071186 33.570921,20.9765257 C35.2740184,20.823977 37.3931879,21.1859416 39.0186667,20.6077912 C40.8837706,19.9447912 42.0827981,18.0221363 41.8639316,16.0566053 C41.3372981,11.3271451 36.3286392,12.2636496 33.0862557,12.8842248 C32.0893977,13.0751363 32.1435502,13.3238177 31.6818998,12.5213575 C31.445885,12.1106496 31.3267494,11.4052248 31.1692557,10.9502867 C30.9305333,10.2597558 30.7039951,9.52499469 30.3700544,8.87011858 C29.3944061,6.95513628 27.2486117,5.90534867 25.1497494,6.59136637 C23.278779,7.20291504 22.0359782,9.08359646 22.2101689,11.0446142 C22.3396837,12.5051097 23.3315778,13.8627027 23.8789697,15.1859947 C21.9660311,15.7858088 20.0855841,16.4871717 18.2425926,17.2765434 C17.3242557,17.6696496 16.4181032,18.0911894 15.509243,18.5046053 C14.9970502,18.7374903 14.422582,19.1251805 13.8711286,19.2515522 C13.0827578,19.4320832 13.47401,19.5801186 12.9072133,19.0439416 C12.2303066,18.4026053 11.7108934,17.304977 11.1418405,16.5485522 C10.3760333,15.5303575 9.5813447,14.2021009 8.32320064,13.7449062 C6.88545064,13.2227204 5.2180036,13.8478088 4.47791886,15.1873487 C3.00903114,17.8461186 6.23968157,20.2462779 7.62553538,22.1319239 C4.44768369,23.5698531 -2.16118284,25.5606584 0.70258411,30.4562071 C3.54649513,35.3179062 8.49874513,30.5279681 11.537154,28.7447735 C12.4369888,30.7391894 12.9879909,32.7967912 13.5917917,34.8918531 C13.7659824,35.4961805 14.5182515,36.8980035 14.3670756,37.4937558 C14.2321456,38.0254195 12.5737239,38.3896407 11.9126117,38.6324549 C10.5994125,39.1144726 9.02763496,39.4096407 7.89313919,40.2739327 C5.11421123,42.3902071 5.47793581,46.8263044 8.57230233,48.4564991 C12.0637875,50.2961097 14.4826011,47.2532602 16.9415778,45.2854726 C17.6202896,47.2234726 17.1960947,49.6949416 19.4298871,50.7004991 C21.5292006,51.6451274 23.99269,50.1688354 24.1596604,47.8751894 C24.3176053,45.7097204 21.9267706,44.4238885 21.8947303,42.3040035 C21.8834485,41.5399062 22.1528574,41.5331363 22.8414972,41.1061805 C23.5319422,40.6783221 24.2345714,40.2676142 24.9615693,39.9047469 C26.2937218,39.2390389 27.6953701,38.7285876 29.07626,38.1766142 C29.9025375,41.7452602 29.753618,49.5744372 35.6738447,47.8422425 C41.6874845,46.0825168 37.0768468,39.441685 36.1332388,35.8928973 C38.2537621,35.3142956 40.3896286,34.7984283 42.5462536,34.3732779 C44.0647811,34.0735965 45.5711244,33.9535434 46.6848617,32.7399239 C49.4543129,29.721446 46.389279,24.8064903 42.4569019,25.9497027" id="Fill-1"></path>
                <path d="M65.0121578,22.8299469 C65.0121578,21.2268319 66.9679672,20.168469 69.9174756,20.168469 C71.7126324,20.168469 74.5019396,20.8743451 76.6820307,21.8040796 C78.4135583,22.5095044 78.7660011,22.3488319 80.1766748,19.6557611 C81.5553083,17.0263274 81.4271472,16.4490796 79.6635794,15.6795664 C76.6820307,14.3328053 72.3863803,13.3069381 68.987857,13.3069381 C61.7422468,13.3069381 56.9010095,17.1865487 56.9010095,22.9901681 C56.9010095,33.9240265 74.0854163,31.4873097 74.0854163,36.6175487 C74.0854163,38.2206637 72.2898083,39.3110708 69.5970731,39.3110708 C67.2247405,39.3110708 63.6976049,38.380885 60.9082977,37.1623009 C59.1451811,36.4252832 58.7606981,36.6816372 57.5422659,39.0542655 C56.1315922,41.7477876 56.2281642,42.2289027 57.8626684,43.0625044 C61.1330307,44.729708 65.8781472,46.0123805 69.7252341,46.0123805 C77.0344735,46.0123805 81.9082023,42.2289027 81.9082023,36.5534602 C81.9082023,25.2666637 65.0121578,28.1204071 65.0121578,22.8299469" id="Fill-4"></path>
                <path d="M140.807847,35.6876336 C139.04473,38.4132 136.031141,40.016315 132.696699,40.016315 C129.939883,40.016315 128.112235,38.5734212 128.112235,36.4251027 C128.112235,33.7636248 130.869501,31.808023 134.97291,31.808023 C136.896228,31.808023 139.04473,32.192554 140.807847,32.8659345 L140.807847,35.6876336 Z M134.459815,13.3067575 C130.612728,13.3067575 126.444787,14.5894301 123.367118,16.5775274 C121.764203,17.6033947 121.700122,18.0845097 123.367118,20.6173593 C125.066154,23.1506602 125.451088,23.2147487 127.021963,22.3170584 C129.073893,21.1305186 131.638919,20.2969168 133.722889,20.2969168 C138.178741,20.2969168 140.807847,22.2845628 140.807847,25.6194212 L140.807847,27.7036513 C138.691836,26.8380053 136.095222,26.324846 133.241834,26.324846 C125.739451,26.3568903 120.738012,30.4292177 120.738012,36.4891912 C120.738012,42.1966779 125.162726,46.0122 131.766629,46.0122 C135.165152,46.0122 138.563675,44.6333947 140.936459,42.0044124 L140.871927,43.9604655 C140.807847,44.9542885 141.513184,45.6917575 142.506883,45.6917575 L146.867516,45.6917575 C147.829175,45.6917575 148.502472,45.018377 148.502472,44.0565982 L148.502472,25.940315 C148.502472,17.988377 143.084059,13.3067575 134.459815,13.3067575 L134.459815,13.3067575 Z" id="Fill-6"></path>
                <path d="M175.338351,37.5793726 C173.767476,38.4450186 171.363103,39.1824876 169.439334,39.1824876 C163.893211,39.1824876 160.205874,35.3349212 160.205874,29.5953903 C160.205874,24.080169 163.893211,20.4248681 169.439334,20.4248681 C171.20245,20.4248681 173.350501,21.0341602 174.697546,21.7400363 C176.460662,22.6377265 176.749025,22.477054 178.41602,19.9121602 C180.179588,17.1865938 180.115056,16.6734345 178.512592,15.7437 C176.20434,14.3648947 172.517003,13.3065319 169.375253,13.3065319 C159.051974,13.3065319 152.190847,19.8160274 152.190847,29.5953903 C152.190847,39.4392929 159.051974,46.0124257 169.311173,46.0124257 C172.741285,46.0124257 176.652904,44.6977088 179.121357,42.9984611 C180.499991,42.036231 180.532031,41.4910274 178.993196,39.1824876 C177.29416,36.7137265 176.941266,36.6496381 175.338351,37.5793726" id="Fill-8"></path>
                <path d="M211.984189,41.6836088 L200.82696,27.1905823 L210.189032,18.0846 C211.503133,16.8019274 211.310892,16.3208124 208.585665,14.5574761 C206.117212,12.9223168 205.347794,12.8257327 203.969161,14.1404496 L191.40171,26.1967593 L191.40171,2.27685664 C191.40171,0.256715044 191.273549,0.000361061947 187.554172,0.000361061947 C184.284261,0.000361061947 183.707085,0.192626549 183.707085,2.27685664 L183.707085,44.3450867 C183.707085,44.986423 184.380381,45.6593522 185.342492,45.6593522 L189.766754,45.6593522 C190.728413,45.6593522 191.40171,44.986423 191.40171,44.3450867 L191.40171,36.3931487 L195.505119,32.4174053 L204.674498,44.6655292 C205.82885,46.1725115 206.277413,46.2370513 209.547324,45.0505115 C212.753606,43.8960159 213.266701,43.3187681 211.984189,41.6836088" id="Fill-10"></path>
                <path d="M115.174651,29.2786487 C114.592962,26.5427018 113.893943,23.8311265 113.3285,21.0924717 C112.802318,18.5433743 112.754483,14.3288788 110.323034,12.701392 C108.123087,11.2287106 104.732687,12.7767637 103.030943,14.3816841 C100.557977,16.7132416 99.7854006,20.8677106 98.8878222,23.9538876 C97.6784155,21.5830646 96.544371,19.157631 95.5073498,16.706923 C94.7740341,14.9738257 93.7726633,13.4023035 91.6557502,13.5981796 C85.8772227,14.133454 86.6773265,22.3755956 86.5942926,26.5648168 C86.5076485,30.9440469 86.6470913,35.4054186 86.1700977,39.7598257 C85.9485235,41.7777106 85.7522206,43.7635513 87.6656104,45.0412593 C89.2730383,46.1145159 91.4996104,45.8188965 92.7699388,44.3597549 C94.1932481,42.7245956 93.5605659,40.8506841 93.32771,38.9347991 C93.148104,37.4557991 93.0605574,35.9691265 92.9793286,34.4820027 C92.7600108,30.4836929 92.5411443,26.4853832 92.3285956,22.4866221 C93.9996528,26.1699053 95.7645744,29.8820735 96.2907566,33.9377018 C96.5001464,35.554808 96.928854,37.007631 98.6188646,37.6530292 C100.156797,38.2402062 101.914047,37.6521265 102.823358,36.2963389 C104.193418,34.2545336 104.717795,31.3660381 105.399665,29.0335779 C105.955632,27.1334894 106.48407,25.2243743 107.084261,23.3378257 C109.031496,28.5921796 110.802735,34.534808 111.109149,40.1754982 C111.275216,43.2228611 109.523382,47.8060912 113.17236,49.3929584 C116.369165,50.7830469 119.767237,47.5407106 118.495104,44.2767106 C116.650759,39.5436398 116.227015,34.2297106 115.174651,29.2786487" id="Fill-13"></path>
            </g>
        </g>
    </g>
</svg>