<?xml version="1.0" encoding="UTF-8" standalone="no"?>
<svg width="18px" height="18px" viewBox="0 0 18 18" version="1.1" xmlns="http://www.w3.org/2000/svg" xmlns:xlink="http://www.w3.org/1999/xlink">
    <!-- Generator: sketchtool 3.7 (28169) - http://www.bohemiancoding.com/sketch -->
    <title>716AD0C3-2A3B-47C8-A507-50310BA65AFD</title>
    <desc>Created with sketchtool.</desc>
    <defs></defs>
    <g id="Page-1" stroke="none" stroke-width="1" fill="none" fill-rule="evenodd">
        <g id="Smack-App-UI-Default" transform="translate(-939.000000, -31.000000)" fill="#4B4B50">
            <g id="Conversation-Header">
                <g id="Icon-Exit" transform="translate(936.000000, 28.000000)">
                    <path d="M10.09,15.59 L11.5,17 L16.5,12 L11.5,7 L10.09,8.41 L12.67,11 L3,11 L3,13 L12.67,13 L10.09,15.59 L10.09,15.59 Z M19,3 L5,3 C3.89,3 3,3.9 3,5 L3,9 L5,9 L5,5 L19,5 L19,19 L5,19 L5,15 L3,15 L3,19 C3,20.1 3.89,21 5,21 L19,21 C20.1,21 21,20.1 21,19 L21,5 C21,3.9 20.1,3 19,3 L19,3 Z" id="Shape"></path>
                </g>
            </g>
        </g>
    </g>
</svg>